<svg id="SvgjsSvg1521" width="451.79411764705867" height="367" xmlns="http://www.w3.org/2000/svg" version="1.1" xmlns:xlink="http://www.w3.org/1999/xlink" xmlns:svgjs="http://svgjs.com/svgjs"><defs id="SvgjsDefs1522"><pattern patternUnits="userSpaceOnUse" id="pattern_mark_0" width="300" height="300"><text x="150" y="100" fill="rgba(229,229,229,0.8)" font-size="18" transform="rotate(-45, 150, 150)" style="dominant-baseline: middle; text-anchor: middle;"></text></pattern><pattern patternUnits="userSpaceOnUse" id="pattern_mark_1" width="300" height="300"><text x="150" y="200" fill="rgba(229,229,229,0.8)" font-size="18" transform="rotate(-45, 150, 150)" style="dominant-baseline: middle; text-anchor: middle;"></text></pattern><marker id="SvgjsMarker1556" markerWidth="14" markerHeight="12" refX="16" refY="6" viewBox="0 0 14 12" orient="auto" markerUnits="userSpaceOnUse" stroke-dasharray="0,0"><path id="SvgjsPath1557" d="M1,1 L14,6 L1,11L1,1" fill="#ffffff" stroke="#323232" stroke-width="1.5"></path></marker></defs><rect id="svgbackgroundid" width="451.79411764705867" height="367" fill="transparent"></rect><rect id="SvgjsRect1524" width="451.79411764705867" height="367" fill="url(#pattern_mark_0)"></rect><rect id="SvgjsRect1525" width="451.79411764705867" height="367" fill="url(#pattern_mark_1)"></rect><g id="SvgjsG1526" transform="translate(110.25707778432002,57.96298556857596)"><path id="SvgjsPath1527" d="M 0 4Q 0 0 4 0L 226 0Q 230 0 230 4L 230 135Q 230 139 226 139L 4 139Q 0 139 0 135Z" stroke="rgba(33,41,48,1)" stroke-width="1.5" fill-opacity="1" fill="#ffffff"></path><path id="SvgjsPath1528" d="M 0 30L 230 30M 0 60L 230 60" stroke="rgba(33,41,48,1)" stroke-width="1.5" fill="none"></path><path id="SvgjsPath1529" d="M 0 0L 230 0L 230 139L 0 139Z" stroke="none" fill="none"></path><g id="SvgjsG1530"><text id="SvgjsText1531" font-family="微软雅黑" text-anchor="middle" font-size="13px" width="210px" fill="#323232" font-weight="700" align="middle" lineHeight="125%" anchor="middle" family="微软雅黑" size="13px" weight="700" font-style="" opacity="1" y="4.375" transform="rotate(0)"><tspan id="SvgjsTspan1532" dy="16.25" x="115"><tspan id="SvgjsTspan1533" style="">Thread</tspan></tspan></text></g><g id="SvgjsG1534"><text id="SvgjsText1535" font-family="微软雅黑" text-anchor="start" font-size="13px" width="210px" fill="#323232" font-weight="400" align="middle" lineHeight="125%" anchor="start" family="微软雅黑" size="13px" weight="400" font-style="" opacity="1" y="34.375" transform="rotate(0)"><tspan id="SvgjsTspan1536" dy="16.25" x="10"><tspan id="SvgjsTspan1537" style="">+ threadId_: pthread_t</tspan></tspan></text></g><g id="SvgjsG1538"><text id="SvgjsText1539" font-family="微软雅黑" text-anchor="start" font-size="13px" width="210px" fill="#323232" font-weight="400" align="middle" lineHeight="125%" anchor="start" family="微软雅黑" size="13px" weight="400" font-style="" opacity="1" y="64.375" transform="rotate(0)"><tspan id="SvgjsTspan1540" dy="16.25" x="10"><tspan id="SvgjsTspan1541" style="">+ Start(): void</tspan></tspan><tspan id="SvgjsTspan1542" dy="16.25" x="10"><tspan id="SvgjsTspan1543" style="">+ Join(): void</tspan></tspan><tspan id="SvgjsTspan1544" dy="16.25" x="10"><tspan id="SvgjsTspan1545" style="text-decoration: underline;">- ThreadRoutine(void* arg): void*</tspan></tspan><tspan id="SvgjsTspan1546" dy="16.25" x="10"><tspan id="SvgjsTspan1547" style="">- Run(): void</tspan></tspan></text></g></g><g id="SvgjsG1548" transform="translate(158.48855785295066,299)"><path id="SvgjsPath1549" d="M 0 4Q 0 0 4 0L 129.53703986273877 0Q 133.53703986273877 0 133.53703986273877 4L 133.53703986273877 39Q 133.53703986273877 43 129.53703986273877 43L 4 43Q 0 43 0 39Z" stroke="rgba(33,41,48,1)" stroke-width="1.5" fill-opacity="1" fill="#ffffff"></path><g id="SvgjsG1550"><text id="SvgjsText1551" font-family="微软雅黑" text-anchor="middle" font-size="13px" width="114px" fill="#323232" font-weight="700" align="middle" lineHeight="125%" anchor="middle" family="微软雅黑" size="13px" weight="700" font-style="" opacity="1" y="10.875" transform="rotate(0)"><tspan id="SvgjsTspan1552" dy="16.25" x="67"><tspan id="SvgjsTspan1553" style="">TestThread</tspan></tspan></text></g></g><g id="SvgjsG1554"><path id="SvgjsPath1555" d="M225.2570777843199 298.25L225.2570777843199 247.9814927842881L225.2570777843199 247.9814927842881L225.2570777843199 199.6629855685762" stroke-dasharray="8,5" stroke="#323232" stroke-width="1.5" fill="none" marker-end="url(#SvgjsMarker1556)"></path></g><g id="SvgjsG1558" transform="translate(175.25707778432002,25)"><path id="SvgjsPath1559" d="M 0 0L 100 0L 100 40L 0 40Z" stroke="none" fill="none"></path><g id="SvgjsG1560"><text id="SvgjsText1561" font-family="微软雅黑" text-anchor="middle" font-size="13px" width="100px" fill="#323232" font-weight="400" align="middle" lineHeight="125%" anchor="middle" family="微软雅黑" size="13px" weight="400" font-style="" opacity="1" y="9.375" transform="rotate(0)"><tspan id="SvgjsTspan1562" dy="16.25" x="50"><tspan id="SvgjsTspan1563" style="">抽象类</tspan></tspan></text></g></g><g id="SvgjsG1564" transform="translate(326.79411764705867,162.05882352941202)"><path id="SvgjsPath1565" d="M 0 0L 100 0L 100 40L 0 40Z" stroke="none" fill="none"></path><g id="SvgjsG1566"><text id="SvgjsText1567" font-family="微软雅黑" text-anchor="middle" font-size="13px" width="100px" fill="#323232" font-weight="400" align="middle" lineHeight="125%" anchor="middle" family="微软雅黑" size="13px" weight="400" font-style="" opacity="1" y="9.375" transform="rotate(0)"><tspan id="SvgjsTspan1568" dy="16.25" x="50"><tspan id="SvgjsTspan1569" style="">纯虚函数</tspan></tspan></text></g></g><g id="SvgjsG1570" transform="translate(25,162.05882352941202)"><path id="SvgjsPath1571" d="M 0 0L 100 0L 100 40L 0 40Z" stroke="none" fill="none"></path><g id="SvgjsG1572"><text id="SvgjsText1573" font-family="微软雅黑" text-anchor="middle" font-size="13px" width="100px" fill="#323232" font-weight="400" align="middle" lineHeight="125%" anchor="middle" family="微软雅黑" size="13px" weight="400" font-style="" opacity="1" y="9.375" transform="rotate(0)"><tspan id="SvgjsTspan1574" dy="16.25" x="50"><tspan id="SvgjsTspan1575" style="">线程执行体</tspan></tspan></text></g></g><g id="SvgjsG1576" transform="translate(314.29411764705867,300.5)"><path id="SvgjsPath1577" d="M 0 0L 100 0L 100 40L 0 40Z" stroke="none" fill="none"></path><g id="SvgjsG1578"><text id="SvgjsText1579" font-family="微软雅黑" text-anchor="middle" font-size="13px" width="100px" fill="#323232" font-weight="400" align="middle" lineHeight="125%" anchor="middle" family="微软雅黑" size="13px" weight="400" font-style="" opacity="1" y="9.375" transform="rotate(0)"><tspan id="SvgjsTspan1580" dy="16.25" x="50"><tspan id="SvgjsTspan1581" style="">具体类</tspan></tspan></text></g></g><g id="SvgjsG1582" transform="translate(26.176470588235247,144.41176470588275)"><path id="SvgjsPath1583" d="M 0 0L 100 0L 100 40L 0 40Z" stroke="none" fill="none"></path><g id="SvgjsG1584"><text id="SvgjsText1585" font-family="微软雅黑" text-anchor="middle" font-size="13px" width="100px" fill="#323232" font-weight="400" align="middle" lineHeight="125%" anchor="middle" family="微软雅黑" size="13px" weight="400" font-style="" opacity="1" y="9.375" transform="rotate(0)"><tspan id="SvgjsTspan1586" dy="16.25" x="50"><tspan id="SvgjsTspan1587" style="">线程入口</tspan></tspan></text></g></g></svg>