<svg id="SvgjsSvg1006" width="451.7941176470588" height="379.9999999999998" xmlns="http://www.w3.org/2000/svg" version="1.1" xmlns:xlink="http://www.w3.org/1999/xlink" xmlns:svgjs="http://svgjs.com/svgjs"><defs id="SvgjsDefs1007"><pattern patternUnits="userSpaceOnUse" id="pattern_mark_0" width="300" height="300"><text x="150" y="100" fill="rgba(229,229,229,0.8)" font-size="18" transform="rotate(-45, 150, 150)" style="dominant-baseline: middle; text-anchor: middle;"></text></pattern><pattern patternUnits="userSpaceOnUse" id="pattern_mark_1" width="300" height="300"><text x="150" y="200" fill="rgba(229,229,229,0.8)" font-size="18" transform="rotate(-45, 150, 150)" style="dominant-baseline: middle; text-anchor: middle;"></text></pattern><marker id="SvgjsMarker1041" markerWidth="14" markerHeight="12" refX="16" refY="6" viewBox="0 0 14 12" orient="auto" markerUnits="userSpaceOnUse" stroke-dasharray="0,0"><path id="SvgjsPath1042" d="M1,1 L14,6 L1,11L1,1" fill="#ffffff" stroke="#323232" stroke-width="1.5"></path></marker></defs><rect id="svgbackgroundid" width="451.7941176470588" height="379.9999999999998" fill="transparent"></rect><rect id="SvgjsRect1009" width="451.7941176470588" height="379.9999999999998" fill="url(#pattern_mark_0)"></rect><rect id="SvgjsRect1010" width="451.7941176470588" height="379.9999999999998" fill="url(#pattern_mark_1)"></rect><g id="SvgjsG1011" transform="translate(110.25707778432002,57.96298556857596)"><path id="SvgjsPath1012" d="M 0 4Q 0 0 4 0L 226 0Q 230 0 230 4L 230 135Q 230 139 226 139L 4 139Q 0 139 0 135Z" stroke="rgba(33,41,48,1)" stroke-width="1.5" fill-opacity="1" fill="#ffffff"></path><path id="SvgjsPath1013" d="M 0 30L 230 30M 0 60L 230 60" stroke="rgba(33,41,48,1)" stroke-width="1.5" fill="none"></path><path id="SvgjsPath1014" d="M 0 0L 230 0L 230 139L 0 139Z" stroke="none" fill="none"></path><g id="SvgjsG1015"><text id="SvgjsText1016" font-family="微软雅黑" text-anchor="middle" font-size="13px" width="210px" fill="#323232" font-weight="700" align="middle" lineHeight="125%" anchor="middle" family="微软雅黑" size="13px" weight="700" font-style="" opacity="1" y="4.375" transform="rotate(0)"><tspan id="SvgjsTspan1017" dy="16.25" x="115"><tspan id="SvgjsTspan1018" style="">Thread</tspan></tspan></text></g><g id="SvgjsG1019"><text id="SvgjsText1020" font-family="微软雅黑" text-anchor="start" font-size="13px" width="210px" fill="#323232" font-weight="400" align="middle" lineHeight="125%" anchor="start" family="微软雅黑" size="13px" weight="400" font-style="" opacity="1" y="34.375" transform="rotate(0)"><tspan id="SvgjsTspan1021" dy="16.25" x="10"><tspan id="SvgjsTspan1022" style="">+ threadId_: pthread_t</tspan></tspan></text></g><g id="SvgjsG1023"><text id="SvgjsText1024" font-family="微软雅黑" text-anchor="start" font-size="13px" width="210px" fill="#323232" font-weight="400" align="middle" lineHeight="125%" anchor="start" family="微软雅黑" size="13px" weight="400" font-style="" opacity="1" y="64.375" transform="rotate(0)"><tspan id="SvgjsTspan1025" dy="16.25" x="10"><tspan id="SvgjsTspan1026" style="">+ Start(): void</tspan></tspan><tspan id="SvgjsTspan1027" dy="16.25" x="10"><tspan id="SvgjsTspan1028" style="">+ Join(): void</tspan></tspan><tspan id="SvgjsTspan1029" dy="16.25" x="10"><tspan id="SvgjsTspan1030" style="text-decoration: underline;">- ThreadRoutine(void* arg): void*</tspan></tspan><tspan id="SvgjsTspan1031" dy="16.25" x="10"><tspan id="SvgjsTspan1032" style="">- Run(): void</tspan></tspan></text></g></g><g id="SvgjsG1033" transform="translate(158.48855785295063,298.9999999999998)"><path id="SvgjsPath1034" d="M 0 4Q 0 0 4 0L 129.53703986273877 0Q 133.53703986273877 0 133.53703986273877 4L 133.53703986273877 39Q 133.53703986273877 43 129.53703986273877 43L 4 43Q 0 43 0 39Z" stroke="rgba(33,41,48,1)" stroke-width="1.5" fill-opacity="1" fill="#ffffff"></path><g id="SvgjsG1035"><text id="SvgjsText1036" font-family="微软雅黑" text-anchor="middle" font-size="13px" width="114px" fill="#323232" font-weight="700" align="middle" lineHeight="125%" anchor="middle" family="微软雅黑" size="13px" weight="700" font-style="" opacity="1" y="10.875" transform="rotate(0)"><tspan id="SvgjsTspan1037" dy="16.25" x="67"><tspan id="SvgjsTspan1038" style="">TestThread</tspan></tspan></text></g></g><g id="SvgjsG1039"><path id="SvgjsPath1040" d="M225.25707778432002 298.2499999999998L225.25707778432002 247.98149278428787L225.25707778432002 247.98149278428787L225.25707778432002 199.66298556857578" stroke-dasharray="8,5" stroke="#323232" stroke-width="1.5" fill="none" marker-end="url(#SvgjsMarker1041)"></path></g><g id="SvgjsG1043" transform="translate(175.25707778432002,25)"><path id="SvgjsPath1044" d="M 0 0L 100 0L 100 40L 0 40Z" stroke="none" fill="none"></path><g id="SvgjsG1045"><text id="SvgjsText1046" font-family="微软雅黑" text-anchor="middle" font-size="13px" width="100px" fill="#323232" font-weight="400" align="middle" lineHeight="125%" anchor="middle" family="微软雅黑" size="13px" weight="400" font-style="" opacity="1" y="9.375" transform="rotate(0)"><tspan id="SvgjsTspan1047" dy="16.25" x="50"><tspan id="SvgjsTspan1048" style="">抽象类</tspan></tspan></text></g></g><g id="SvgjsG1049" transform="translate(326.7941176470588,149.55882352941194)"><path id="SvgjsPath1050" d="M 0 0L 100 0L 100 65L 0 65Z" stroke="none" fill="none"></path><g id="SvgjsG1051"><text id="SvgjsText1052" font-family="微软雅黑" text-anchor="middle" font-size="13px" width="100px" fill="#323232" font-weight="400" align="middle" lineHeight="125%" anchor="middle" family="微软雅黑" size="13px" weight="400" font-style="" opacity="1" y="21.875" transform="rotate(0)"><tspan id="SvgjsTspan1053" dy="16.25" x="50"><tspan id="SvgjsTspan1054" style="fill: rgb(231, 79, 76);">纯虚函数</tspan></tspan></text></g></g><g id="SvgjsG1055" transform="translate(25,149.55882352941194)"><path id="SvgjsPath1056" d="M 0 0L 100 0L 100 65L 0 65Z" stroke="none" fill="none"></path><g id="SvgjsG1057"><text id="SvgjsText1058" font-family="微软雅黑" text-anchor="middle" font-size="13px" width="100px" fill="#323232" font-weight="400" align="middle" lineHeight="125%" anchor="middle" family="微软雅黑" size="13px" weight="400" font-style="" opacity="1" y="21.875" transform="rotate(0)"><tspan id="SvgjsTspan1059" dy="16.25" x="50"><tspan id="SvgjsTspan1060" style="fill: rgb(231, 79, 76);">线程执行体</tspan></tspan></text></g></g><g id="SvgjsG1061" transform="translate(275.25707778432,289.9999999999998)"><path id="SvgjsPath1062" d="M 0 0L 100 0L 100 65L 0 65Z" stroke="none" fill="none"></path><g id="SvgjsG1063"><text id="SvgjsText1064" font-family="微软雅黑" text-anchor="middle" font-size="13px" width="100px" fill="#323232" font-weight="400" align="middle" lineHeight="125%" anchor="middle" family="微软雅黑" size="13px" weight="400" font-style="" opacity="1" y="21.875" transform="rotate(0)"><tspan id="SvgjsTspan1065" dy="16.25" x="50"><tspan id="SvgjsTspan1066" style="fill: rgb(231, 79, 76);">具体类</tspan></tspan></text></g></g><g id="SvgjsG1067" transform="translate(26.176470588235247,131.91176470588266)"><path id="SvgjsPath1068" d="M 0 0L 100 0L 100 65L 0 65Z" stroke="none" fill="none"></path><g id="SvgjsG1069"><text id="SvgjsText1070" font-family="微软雅黑" text-anchor="middle" font-size="13px" width="100px" fill="#323232" font-weight="400" align="middle" lineHeight="125%" anchor="middle" family="微软雅黑" size="13px" weight="400" font-style="" opacity="1" y="21.875" transform="rotate(0)"><tspan id="SvgjsTspan1071" dy="16.25" x="50"><tspan id="SvgjsTspan1072" style="fill: rgb(231, 79, 76);">线程入口</tspan></tspan></text></g></g></svg>